<?xml version="1.0" encoding="UTF-8" standalone="no"?>
<!-- Created with Inkscape (http://www.inkscape.org/) -->

<svg
   xmlns:dc="http://purl.org/dc/elements/1.1/"
   xmlns:cc="http://creativecommons.org/ns#"
   xmlns:rdf="http://www.w3.org/1999/02/22-rdf-syntax-ns#"
   xmlns:svg="http://www.w3.org/2000/svg"
   xmlns="http://www.w3.org/2000/svg"
   xmlns:xlink="http://www.w3.org/1999/xlink"
   xmlns:sodipodi="http://sodipodi.sourceforge.net/DTD/sodipodi-0.dtd"
   xmlns:inkscape="http://www.inkscape.org/namespaces/inkscape"
   viewBox="0 0 200 200"
   preserveAspectRatio="xMinYMin meet"
   id="svg2"
   version="1.1"
   inkscape:version="0.48.2 r9819"
   sodipodi:docname="dress-code-logo.svg">
  <defs
     id="defs4">
    <clipPath
       clipPathUnits="userSpaceOnUse"
       id="clipPath16">
      <path
         d="m 0,80.47 614.43,0 L 614.43,0 0,0 0,80.47 z"
         id="path18"
         inkscape:connector-curvature="0" />
    </clipPath>
    <inkscape:path-effect
       vertical="false"
       scale_y_rel="false"
       prop_scale="1"
       bendpath="m -71.03735,1318.7069 601.86907,0"
       is_visible="true"
       id="path-effect4278"
       effect="bend_path" />
    <filter
       id="filter3338"
       inkscape:label="Torn edges"
       inkscape:menu="Distort"
       inkscape:menu-tooltip="Displace the outside of shapes and pictures without altering their content"
       height="1.4"
       y="-0.2"
       width="1.4"
       x="-0.2"
       color-interpolation-filters="sRGB">
      <feTurbulence
         id="feTurbulence3340"
         baseFrequency="0.05"
         numOctaves="5"
         type="fractalNoise"
         result="result91" />
      <feDisplacementMap
         id="feDisplacementMap3342"
         in2="result91"
         scale="25"
         result="result5"
         xChannelSelector="R"
         in="SourceGraphic"
         yChannelSelector="A" />
      <feComposite
         id="feComposite3344"
         in2="result5"
         in="SourceGraphic"
         operator="atop" />
    </filter>
    <filter
       id="filter3925"
       inkscape:label="Chalk and sponge"
       inkscape:menu="Distort"
       inkscape:menu-tooltip="Low turbulence gives sponge look and high turbulence chalk"
       width="1.6"
       height="2"
       y="-0.5"
       x="-0.3"
       color-interpolation-filters="sRGB">
      <feTurbulence
         id="feTurbulence3927"
         baseFrequency="0.4"
         type="fractalNoise"
         seed="0"
         numOctaves="5"
         result="result1" />
      <feOffset
         id="feOffset3929"
         dx="-5"
         dy="-5"
         result="result2" />
      <feDisplacementMap
         id="feDisplacementMap3931"
         in2="result1"
         xChannelSelector="R"
         yChannelSelector="G"
         scale="30"
         in="SourceGraphic" />
    </filter>
  </defs>
  <sodipodi:namedview
     id="base"
     pagecolor="#000000"
     bordercolor="#666666"
     borderopacity="1.0"
     inkscape:pageopacity="1"
     inkscape:pageshadow="2"
     inkscape:zoom="3.236"
     inkscape:cx="97.198725"
     inkscape:cy="75.556291"
     inkscape:document-units="px"
     inkscape:current-layer="layer1"
     showgrid="false"
     inkscape:window-width="1296"
     inkscape:window-height="1148"
     inkscape:window-x="1702"
     inkscape:window-y="348"
     inkscape:window-maximized="0"
     fit-margin-top="0"
     fit-margin-left="0"
     fit-margin-right="0"
     fit-margin-bottom="0" />
  <metadata
     id="metadata7">
    <rdf:RDF>
      <cc:Work
         rdf:about="">
        <dc:format>image/svg+xml</dc:format>
        <dc:type
           rdf:resource="http://purl.org/dc/dcmitype/StillImage" />
        <dc:title />
      </cc:Work>
    </rdf:RDF>
  </metadata>
  <g
     inkscape:groupmode="layer"
     id="layer2"
     inkscape:label="paths"
     style="display:none"
     transform="translate(497.84375,-1470.0938)">
    <path
       style="opacity:0.5;fill:#0000ff;fill-opacity:1;stroke:#ff0000;stroke-width:11.49383354;stroke-linecap:round;stroke-linejoin:round;stroke-miterlimit:4;stroke-opacity:1"
       d="m 229.89719,246.17053 c -384.49949,0 -696.19793,311.6984 -696.19793,696.19794 0,384.49953 311.69844,696.19793 696.19793,696.19793 384.49955,0 696.19795,-311.6984 696.19795,-696.19793 0,-384.49954 -311.6984,-696.19794 -696.19795,-696.19794 z"
       id="path3093"
       inkscape:connector-curvature="0" />
    <path
       sodipodi:type="arc"
       style="opacity:0.5;fill:#ff0000;fill-opacity:1;stroke:#ff0000;stroke-width:10;stroke-linecap:round;stroke-linejoin:round;stroke-miterlimit:4;stroke-opacity:1;stroke-dasharray:none"
       id="path3077"
       sodipodi:cx="234.28572"
       sodipodi:cy="940.93359"
       sodipodi:rx="605.71429"
       sodipodi:ry="605.71429"
       d="m 840.00002,940.93359 c 0,334.52681 -271.18753,605.71431 -605.7143,605.71431 -334.52677,0 -605.71429,-271.1875 -605.71429,-605.71431 0,-334.52676 271.18752,-605.71429 605.71429,-605.71429 334.52677,0 605.7143,271.18753 605.7143,605.71429 z"
       transform="matrix(0,1,-1,0,1170.8308,708.08274)" />
  </g>
  <g
     inkscape:label="Layer 1"
     inkscape:groupmode="layer"
     id="layer1"
     transform="translate(497.84375,-1470.0938)">
    <g
       id="g3896"
       transform="matrix(0.13741278,0,0,0.13741278,-429.43366,1440.6016)">
      <text
         sodipodi:linespacing="125%"
         id="text2987"
         style="font-size:100px;font-style:normal;font-variant:normal;font-weight:bold;font-stretch:normal;text-align:center;line-height:125%;letter-spacing:0px;word-spacing:0px;writing-mode:lr-tb;text-anchor:middle;fill:#ffffff;fill-opacity:1;stroke:none;font-family:Amatic SC;-inkscape-font-specification:Amatic SC Bold"
         xml:space="preserve"><textPath
           style="font-size:125px;fill:#ffffff"
           id="textPath3079"
           startOffset="50%"
           xlink:href="#path3077">You Can't Dress Your Friends</textPath></text>
      <text
         sodipodi:linespacing="125%"
         id="text2991"
         style="font-size:100px;font-style:normal;font-variant:normal;font-weight:bold;font-stretch:normal;text-align:center;line-height:125%;letter-spacing:0px;word-spacing:0px;writing-mode:lr-tb;text-anchor:middle;fill:#ffffff;fill-opacity:1;stroke:none;font-family:Amatic SC;-inkscape-font-specification:Amatic SC Bold"
         xml:space="preserve"><textPath
           id="textPath3096"
           startOffset="50%"
           xlink:href="#path3093"><tspan
   style="font-size:125px;fill:#ffffff"
   id="tspan3091">...but you can try</tspan></textPath></text>
      <g
         id="g3288">
        <rect
           style="fill:#ffffff;fill-opacity:1;stroke:#d90077;stroke-width:2.5;stroke-miterlimit:4;stroke-opacity:1;stroke-dasharray:none"
           id="rect3765"
           width="45.714287"
           height="91.428574"
           x="-9.2903042"
           y="482.54047"
           transform="matrix(0.98886794,-0.14879581,0.14879581,0.98886794,0,0)" />
        <rect
           transform="matrix(-0.98886794,-0.14879581,-0.14879581,0.98886794,0,0)"
           y="414.27478"
           x="-462.96759"
           height="91.428574"
           width="45.714287"
           id="rect3769"
           style="fill:#ffffff;fill-opacity:1;stroke:#d90077;stroke-width:2.5;stroke-miterlimit:4;stroke-opacity:1;stroke-dasharray:none" />
        <rect
           y="317.26297"
           x="-895.16394"
           height="91.428574"
           width="45.714287"
           id="rect3767"
           style="fill:#ffffff;fill-opacity:1;stroke:#d90077;stroke-width:2.5;stroke-miterlimit:4;stroke-opacity:1;stroke-dasharray:none"
           transform="matrix(0.27119121,-0.96252549,0.96252549,0.27119121,0,0)" />
        <rect
           transform="matrix(-0.27119121,-0.96252549,-0.96252549,0.27119121,0,0)"
           style="fill:#ffffff;fill-opacity:1;stroke:#d90077;stroke-width:2.5;stroke-miterlimit:4;stroke-opacity:1;stroke-dasharray:none"
           id="rect3773"
           width="45.714287"
           height="91.428574"
           x="-1019.5822"
           y="-124.32891" />
        <path
           sodipodi:nodetypes="zzccccccccccczzcz"
           inkscape:connector-curvature="0"
           id="use2993"
           d="m 358.35836,1433.6725 c -17.0193,-11.649 188.59912,-23.6837 158.57322,-39.2113 -30.026,-15.5275 117.2939,-29.7682 87.7513,-58.0931 C 419.09526,1158.4822 233.49816,836.92167 370.39716,622.0824 c 10.5119,6.262 10.9273,0.1879 27.1429,17.8572 l 50,-57.1429 c -30,-63.5714 -41.42439,-64.2857 -111.42819,-72.1429 0,45.7143 -0.50041,114.2858 -106.21471,114.2858 -105.7142,0 -106.21429,-68.5715 -106.21429,-114.2858 -70.0038,7.8572 -81.42851,8.5715 -111.42851,72.1429 l 50,57.1429 c 16.2156,-17.6693 16.6309,-11.5952 27.1428,-17.8572 136.8991,214.83927 -48.6981,536.3998 -234.2857,714.2857 -29.5425,28.3249 117.7773,42.5656 87.7514,58.0931 -30.026,15.5276 175.5925,27.5623 158.5731,39.2113 -17.0193,11.6491 88.9343,20.5006 128.4612,20.4099 39.5269,0.091 145.4805,-8.7608 128.4612,-20.4099 z"
           style="fill:#d90077;fill-opacity:1;stroke:none;filter:url(#filter3338)" />
        <text
           xml:space="preserve"
           style="font-size:222.66294861px;font-style:normal;font-variant:normal;font-weight:bold;font-stretch:normal;text-align:start;line-height:125%;letter-spacing:0px;word-spacing:0px;writing-mode:lr-tb;text-anchor:start;fill:#d90077;fill-opacity:1;stroke:none;font-family:Amatic SC;-inkscape-font-specification:Amatic SC Bold"
           x="388.39755"
           y="851.60901"
           id="text3801"
           sodipodi:linespacing="125%"><tspan
             sodipodi:role="line"
             id="tspan3803"
             x="388.39755"
             y="851.60901">CODE</tspan></text>
        <text
           sodipodi:linespacing="125%"
           id="text3807"
           y="851.60901"
           x="-252.08282"
           style="font-size:222.66294861px;font-style:normal;font-variant:normal;font-weight:bold;font-stretch:normal;text-align:start;line-height:125%;letter-spacing:0px;word-spacing:0px;writing-mode:lr-tb;text-anchor:start;fill:#d90077;fill-opacity:1;stroke:none;font-family:Amatic SC;-inkscape-font-specification:Amatic SC Bold"
           xml:space="preserve"><tspan
             y="851.60901"
             x="-252.08282"
             id="tspan3809"
             sodipodi:role="line">DRESS</tspan></text>
        <path
           inkscape:connector-curvature="0"
           id="path22"
           style="fill:#ffffff;fill-opacity:1;fill-rule:nonzero;stroke:none"
           d="m -63.8305,1319.076 8.53948,0 c 5.34489,0 9.55901,-4.0287 9.55901,-9.5775 0,-5.6302 -4.49321,-10.0431 -9.80206,-10.0431 l -8.29643,0 0,19.6258 z m 30.4175,18.6321 0,6.8762 c -6.01739,0 -10.04408,-1.8135 -13.06049,-5.8774 -2.16165,-2.9196 -8.66718,-12.8957 -8.66718,-12.8957 -0.46652,8e-4 -8.68983,0 -8.68983,0 l 0,18.4003 -7.20685,0 0,-51.4923 15.74633,0 c 11.56,0 16.76072,9.8083 16.76072,16.7742 0,6.1677 -3.5231,11.8175 -9.05337,14.6371 0.61688,0.9301 1.30482,1.9959 2.02468,3.1102 1.60656,2.4839 3.42629,5.2996 4.8619,7.2471 1.16063,1.5571 2.77955,3.2203 7.28409,3.2203 z m 295.84967,-18.6321 8.53947,0 c 5.3449,0 9.55902,-4.0287 9.55902,-9.5775 0,-5.6302 -4.49424,-10.0431 -9.80206,-10.0431 l -8.29643,0 0,19.6258 z m 30.4175,18.6321 0,6.8762 c -6.01739,0 -10.04408,-1.8135 -13.05946,-5.8774 -2.16268,-2.9196 -8.66821,-12.8957 -8.66821,-12.8957 -0.46652,8e-4 -8.68983,0 -8.68983,0 l 0,18.4003 -7.20685,0 0,-51.4923 15.74632,0 c 11.56001,0 16.76176,9.8083 16.76176,16.7742 0,6.1677 -3.52413,11.8175 -9.05337,14.6371 0.61585,0.9301 1.30379,1.9959 2.02365,3.1102 1.60656,2.4839 3.42629,5.2996 4.86086,7.2471 1.16064,1.5571 2.78059,3.2203 7.28513,3.2203 z m -234.8633,-38.2618 13.61146,0 0,44.7653 7.20067,0 0,-44.7653 13.59292,0 0,-6.7271 -34.40505,0 0,6.7271 z m -15.02132,27.3166 -27.19717,-33.7573 -0.23171,-0.2863 -2.33569,0 0,51.4923 7.11829,0 0,-33.9849 27.47008,33.9849 2.28213,0 0,-51.4923 -7.10593,0 0,34.0436 z m -68.79981,17.4487 28.84184,0 0,-6.727 -21.64116,0 0,-15.7371 17.64021,0 0,-6.728 -17.64021,0 0,-15.5744 21.64116,0 0,-6.7259 -28.84184,0 0,51.4923 z m 403.24807,-17.4487 -27.19717,-33.7573 -0.23378,-0.2863 -2.3326,0 0,51.4923 7.1152,0 0,-33.9849 27.47111,33.9849 2.28316,0 0,-51.4923 -7.10592,0 0,34.0436 z m -264.98008,-27.3166 13.61043,0 0,44.7653 7.20067,0 0,-44.7653 13.59292,0 0,-6.7271 -34.40402,0 0,6.7271 z m 215.87193,26.9716 c 0,7.1729 -4.0648,11.455 -10.87104,11.455 -6.80933,0 -10.87207,-4.2821 -10.87207,-11.455 l 0,-33.6986 -7.20171,0 0,33.6986 c 0,10.592 7.60335,18.2797 18.07378,18.2798 10.46837,-10e-5 18.06862,-7.6878 18.06862,-18.2798 l 0,-33.6986 -7.19758,0 z m -128.56478,17.7937 28.84286,0 0,-6.727 -21.64116,0 0,-15.7371 17.64124,0 0,-6.728 -17.64124,0 0,-15.5744 21.64116,0 0,-6.7259 -28.84286,0 0,51.4923 z m -18.52382,-29.192 -20.5454,0 0,-22.3004 -7.19347,0 0,51.4923 7.19347,0 0,-22.464 20.5454,0 0,22.464 7.19964,0 0,-51.4923 -7.19964,0 z m 268.32811,-22.3004 -12.49923,34.5597 -12.26957,-34.5597 -7.63218,0 4.11423,11.2645 -8.42722,23.293 -12.24898,-34.5575 -7.62909,0 5.70431,15.7021 13.00591,35.7871 2.33775,0 10.93181,-30.1219 10.94622,30.1219 2.33671,0 18.68242,-51.4922 -7.35309,0 z m 24.61843,16.5034 -6.26969,16.4827 12.53321,0 z m 1.12665,-16.5034 20.05623,51.4923 -7.72487,0 -4.58383,-11.7794 -17.75865,0 -4.59516,11.7794 -7.764,0 20.17774,-51.4923 2.19254,0 z m 55.53747,0 -22.06339,51.4923 -7.83197,0 6.51274,-15.2088 -16.19225,-36.2835 7.87419,0 12.1635,27.2703 11.70315,-27.2703 7.83403,0 z"
           inkscape:path-effect="#path-effect4278"
           inkscape:original-d="m -63.8305,1319.0746 8.53948,0 c 5.34489,0 9.55901,-4.0287 9.55901,-9.5775 0,-5.6302 -4.49321,-10.0431 -9.80206,-10.0431 l -8.29643,0 0,19.6258 z m 30.4175,18.632 0,6.8763 c -6.01739,0 -10.04408,-1.8136 -13.06049,-5.8774 -2.16165,-2.9196 -8.66718,-12.8957 -8.66718,-12.8957 -0.46652,8e-4 -8.68983,0 -8.68983,0 l 0,18.4003 -7.20685,0 0,-51.4923 15.74633,0 c 11.56,0 16.76072,9.8083 16.76072,16.7741 0,6.1678 -3.5231,11.8175 -9.05337,14.6372 0.61688,0.93 1.30482,1.9959 2.02468,3.1101 1.60656,2.484 3.42629,5.2996 4.8619,7.2471 1.16063,1.5571 2.77955,3.2203 7.28409,3.2203 m 295.84967,-18.632 8.53947,0 c 5.3449,0 9.55902,-4.0287 9.55902,-9.5775 0,-5.6302 -4.49424,-10.0431 -9.80206,-10.0431 l -8.29643,0 0,19.6258 z m 30.4175,18.632 0,6.8763 c -6.01739,0 -10.04408,-1.8136 -13.05946,-5.8774 -2.16268,-2.9196 -8.66821,-12.8957 -8.66821,-12.8957 -0.46652,8e-4 -8.68983,0 -8.68983,0 l 0,18.4003 -7.20685,0 0,-51.4923 15.74632,0 c 11.56001,0 16.76176,9.8083 16.76176,16.7741 0,6.1678 -3.52413,11.8175 -9.05337,14.6372 0.61585,0.93 1.30379,1.9959 2.02365,3.1101 1.60656,2.484 3.42629,5.2996 4.86086,7.2471 1.16064,1.5571 2.78059,3.2203 7.28513,3.2203 m -234.8633,-38.2618 13.61146,0 0,44.7653 7.20067,0 0,-44.7653 13.59292,0 0,-6.727 -34.40505,0 0,6.727 z m -15.02132,27.3166 -27.19717,-33.7573 -0.23171,-0.2863 -2.33569,0 0,51.4923 7.11829,0 0,-33.9849 27.47008,33.9849 2.28213,0 0,-51.4923 -7.10593,0 0,34.0436 z m -68.79981,17.4487 28.84184,0 0,-6.727 -21.64116,0 0,-15.737 17.64021,0 0,-6.728 -17.64021,0 0,-15.5744 21.64116,0 0,-6.7259 -28.84184,0 0,51.4923 z m 403.24807,-17.4487 -27.19717,-33.7573 -0.23378,-0.2863 -2.3326,0 0,51.4923 7.1152,0 0,-33.9849 27.47111,33.9849 2.28316,0 0,-51.4923 -7.10592,0 0,34.0436 z m -264.98008,-27.3166 13.61043,0 0,44.7653 7.20067,0 0,-44.7653 13.59292,0 0,-6.727 -34.40402,0 0,6.727 z m 215.87193,26.9716 c 0,7.1729 -4.0648,11.455 -10.87104,11.455 -6.80933,0 -10.87207,-4.2821 -10.87207,-11.455 l 0,-33.6986 -7.20171,0 0,33.6986 c 0,10.592 7.60335,18.2798 18.07378,18.2798 10.46837,0 18.06862,-7.6878 18.06862,-18.2798 l 0,-33.6986 -7.19758,0 0,33.6986 z m -128.56478,17.7937 28.84286,0 0,-6.727 -21.64116,0 0,-15.737 17.64124,0 0,-6.728 -17.64124,0 0,-15.5744 21.64116,0 0,-6.7259 -28.84286,0 0,51.4923 z m -18.52382,-29.192 -20.5454,0 0,-22.3003 -7.19347,0 0,51.4923 7.19347,0 0,-22.464 20.5454,0 0,22.464 7.19964,0 0,-51.4923 -7.19964,0 0,22.3003 z m 268.32811,-22.3003 -12.49923,34.5596 -12.26957,-34.5596 -7.63218,0 4.11423,11.2645 -8.42722,23.293 -12.24898,-34.5575 -7.62909,0 5.70431,15.7021 0,0 13.00591,35.7871 2.33775,0 10.93181,-30.1219 10.94622,30.1219 2.33671,0 18.68242,-51.4923 -7.35309,0 z m 24.61843,16.5033 -6.26969,16.4827 12.53321,0 -6.26352,-16.4827 z m 1.12665,-16.5033 20.05623,51.4923 -7.72487,0 -4.58383,-11.7794 -17.75865,0 -4.59516,11.7794 -7.764,0 20.17774,-51.4923 2.19254,0 z m 55.53747,0 -22.06339,51.4923 -7.83197,0 6.51274,-15.2088 -16.19225,-36.2835 7.87419,0 12.1635,27.2703 11.70315,-27.2703 7.83403,0 z" />
      </g>
      <path
         inkscape:connector-curvature="0"
         id="path3102"
         d="m 229.90625,217.125 c -400.53451,0 -725.25,324.71544 -725.25,725.25 0,400.5345 324.71549,725.2187 725.25,725.2188 400.53457,0 725.21875,-324.6843 725.21875,-725.2188 0,-400.53456 -324.68418,-725.25 -725.21875,-725.25 z m 0,145.59375 c 320.13273,0 579.65625,259.52352 579.65625,579.65625 0,320.1327 -259.52352,579.6562 -579.65625,579.6562 -320.13273,0 -579.65625,-259.5235 -579.65625,-579.6562 0,-320.13273 259.52352,-579.65625 579.65625,-579.65625 z"
         style="fill:none;stroke:#ffffff;stroke-width:5;stroke-linecap:round;stroke-linejoin:round;stroke-miterlimit:4;stroke-opacity:1;stroke-dasharray:none;display:inline;filter:url(#filter3925)" />
    </g>
  </g>
</svg>
